<mxfile host="app.diagrams.net" agent="Mozilla/5.0 (Windows NT 10.0; Win64; x64) AppleWebKit/537.36 (KHTML, like Gecko) Chrome/130.0.0.0 Safari/537.36" version="24.8.3">
  <diagram name="Trang-1" id="LMNHTx476Kwlzmplqe_C">
    <mxGraphModel grid="1" page="1" gridSize="10" guides="1" tooltips="1" connect="1" arrows="1" fold="1" pageScale="1" pageWidth="827" pageHeight="583" math="0" shadow="0">
      <root>
        <mxCell id="0" />
        <mxCell id="1" parent="0" />
        <mxCell id="-_XJaFZbVaO3OMzWNfe_-2" value="" style="ellipse;whiteSpace=wrap;html=1;fillColor=#FFFFFF;" vertex="1" parent="1">
          <mxGeometry x="210" y="370" width="20" height="20" as="geometry" />
        </mxCell>
        <mxCell id="-_XJaFZbVaO3OMzWNfe_-3" value="" style="endArrow=none;html=1;rounded=0;exitX=0.5;exitY=1;exitDx=0;exitDy=0;" edge="1" parent="1" source="-_XJaFZbVaO3OMzWNfe_-2">
          <mxGeometry width="50" height="50" relative="1" as="geometry">
            <mxPoint x="380" y="430" as="sourcePoint" />
            <mxPoint x="220" y="420" as="targetPoint" />
            <Array as="points">
              <mxPoint x="220" y="420" />
            </Array>
          </mxGeometry>
        </mxCell>
        <mxCell id="-_XJaFZbVaO3OMzWNfe_-4" value="" style="endArrow=none;html=1;rounded=0;" edge="1" parent="1">
          <mxGeometry width="50" height="50" relative="1" as="geometry">
            <mxPoint x="200" y="450" as="sourcePoint" />
            <mxPoint x="220" y="420" as="targetPoint" />
          </mxGeometry>
        </mxCell>
        <mxCell id="-_XJaFZbVaO3OMzWNfe_-5" value="" style="endArrow=none;html=1;rounded=0;" edge="1" parent="1">
          <mxGeometry width="50" height="50" relative="1" as="geometry">
            <mxPoint x="220" y="420" as="sourcePoint" />
            <mxPoint x="240" y="450" as="targetPoint" />
          </mxGeometry>
        </mxCell>
        <mxCell id="-_XJaFZbVaO3OMzWNfe_-6" value="" style="endArrow=none;html=1;rounded=0;" edge="1" parent="1">
          <mxGeometry width="50" height="50" relative="1" as="geometry">
            <mxPoint x="200" y="400" as="sourcePoint" />
            <mxPoint x="240" y="400" as="targetPoint" />
          </mxGeometry>
        </mxCell>
        <mxCell id="-_XJaFZbVaO3OMzWNfe_-7" value="SPSO" style="text;html=1;align=center;verticalAlign=middle;whiteSpace=wrap;rounded=0;" vertex="1" parent="1">
          <mxGeometry x="190" y="340" width="60" height="30" as="geometry" />
        </mxCell>
        <mxCell id="-_XJaFZbVaO3OMzWNfe_-8" value="&lt;font style=&quot;font-size: 16px;&quot;&gt;:PrinterService.View&lt;/font&gt;" style="rounded=0;whiteSpace=wrap;html=1;fillColor=default;" vertex="1" parent="1">
          <mxGeometry x="490" y="370" width="160" height="60" as="geometry" />
        </mxCell>
        <mxCell id="-_XJaFZbVaO3OMzWNfe_-9" value="&lt;font style=&quot;font-size: 16px;&quot;&gt;:PrinterService.Controller&lt;/font&gt;" style="rounded=0;whiteSpace=wrap;html=1;fillColor=default;" vertex="1" parent="1">
          <mxGeometry x="760" y="370" width="200" height="60" as="geometry" />
        </mxCell>
        <mxCell id="-_XJaFZbVaO3OMzWNfe_-10" value="&lt;font style=&quot;font-size: 16px;&quot;&gt;:PrinterService.Model&lt;/font&gt;" style="rounded=0;whiteSpace=wrap;html=1;fillColor=default;" vertex="1" parent="1">
          <mxGeometry x="1060" y="370" width="170" height="60" as="geometry" />
        </mxCell>
        <mxCell id="-_XJaFZbVaO3OMzWNfe_-12" value="" style="rounded=0;whiteSpace=wrap;html=1;fillColor=#FFFFFF;" vertex="1" parent="1">
          <mxGeometry x="215" y="470" width="10" height="370" as="geometry" />
        </mxCell>
        <mxCell id="-_XJaFZbVaO3OMzWNfe_-13" value="" style="endArrow=none;dashed=1;html=1;dashPattern=1 3;strokeWidth=2;rounded=0;exitX=0.5;exitY=0;exitDx=0;exitDy=0;" edge="1" parent="1" source="-_XJaFZbVaO3OMzWNfe_-12">
          <mxGeometry width="50" height="50" relative="1" as="geometry">
            <mxPoint x="320" y="580" as="sourcePoint" />
            <mxPoint x="220" y="430" as="targetPoint" />
          </mxGeometry>
        </mxCell>
        <mxCell id="-_XJaFZbVaO3OMzWNfe_-14" value="" style="endArrow=none;dashed=1;html=1;dashPattern=1 3;strokeWidth=2;rounded=0;exitX=0.5;exitY=0;exitDx=0;exitDy=0;" edge="1" parent="1">
          <mxGeometry width="50" height="50" relative="1" as="geometry">
            <mxPoint x="569.6700000000001" y="470" as="sourcePoint" />
            <mxPoint x="569.6700000000001" y="430" as="targetPoint" />
          </mxGeometry>
        </mxCell>
        <mxCell id="-_XJaFZbVaO3OMzWNfe_-18" value="" style="rounded=0;whiteSpace=wrap;html=1;fillColor=#FFFFFF;" vertex="1" parent="1">
          <mxGeometry x="565" y="470" width="10" height="370" as="geometry" />
        </mxCell>
        <mxCell id="-_XJaFZbVaO3OMzWNfe_-23" value="" style="endArrow=none;dashed=1;html=1;dashPattern=1 3;strokeWidth=2;rounded=0;" edge="1" parent="1">
          <mxGeometry width="50" height="50" relative="1" as="geometry">
            <mxPoint x="860" y="840" as="sourcePoint" />
            <mxPoint x="859.5800000000002" y="430" as="targetPoint" />
          </mxGeometry>
        </mxCell>
        <mxCell id="-_XJaFZbVaO3OMzWNfe_-24" value="" style="endArrow=none;dashed=1;html=1;dashPattern=1 3;strokeWidth=2;rounded=0;" edge="1" parent="1">
          <mxGeometry width="50" height="50" relative="1" as="geometry">
            <mxPoint x="1145" y="840" as="sourcePoint" />
            <mxPoint x="1144.6000000000001" y="433" as="targetPoint" />
          </mxGeometry>
        </mxCell>
        <mxCell id="-_XJaFZbVaO3OMzWNfe_-62" value="" style="endArrow=classic;html=1;rounded=0;exitX=1.024;exitY=0.012;exitDx=0;exitDy=0;exitPerimeter=0;entryX=-0.069;entryY=0.011;entryDx=0;entryDy=0;entryPerimeter=0;" edge="1" parent="1">
          <mxGeometry width="50" height="50" relative="1" as="geometry">
            <mxPoint x="225" y="541" as="sourcePoint" />
            <mxPoint x="564" y="540" as="targetPoint" />
          </mxGeometry>
        </mxCell>
        <mxCell id="-_XJaFZbVaO3OMzWNfe_-63" value="ViewPrinterLogs()" style="text;html=1;align=center;verticalAlign=middle;whiteSpace=wrap;rounded=0;fontSize=14;" vertex="1" parent="1">
          <mxGeometry x="289" y="510" width="190" height="30" as="geometry" />
        </mxCell>
        <mxCell id="-_XJaFZbVaO3OMzWNfe_-64" style="edgeStyle=orthogonalEdgeStyle;rounded=0;orthogonalLoop=1;jettySize=auto;html=1;exitX=0.5;exitY=1;exitDx=0;exitDy=0;" edge="1" parent="1" source="-_XJaFZbVaO3OMzWNfe_-63" target="-_XJaFZbVaO3OMzWNfe_-63">
          <mxGeometry relative="1" as="geometry" />
        </mxCell>
        <mxCell id="-_XJaFZbVaO3OMzWNfe_-65" value="ViewPrinterLogsAPI()" style="text;html=1;align=center;verticalAlign=middle;whiteSpace=wrap;rounded=0;fontSize=14;" vertex="1" parent="1">
          <mxGeometry x="599" y="561.5" width="200.24" height="30" as="geometry" />
        </mxCell>
        <mxCell id="-_XJaFZbVaO3OMzWNfe_-66" value="ViewPrinterOperationHistory()" style="text;html=1;align=center;verticalAlign=middle;whiteSpace=wrap;rounded=0;fontSize=14;" vertex="1" parent="1">
          <mxGeometry x="909" y="571.5" width="200.24" height="30" as="geometry" />
        </mxCell>
        <mxCell id="-_XJaFZbVaO3OMzWNfe_-70" value="" style="endArrow=open;html=1;rounded=0;exitX=0.955;exitY=0.208;exitDx=0;exitDy=0;exitPerimeter=0;entryX=0.027;entryY=0.096;entryDx=0;entryDy=0;entryPerimeter=0;endFill=0;dashed=1;" edge="1" parent="1">
          <mxGeometry width="50" height="50" relative="1" as="geometry">
            <mxPoint x="1139" y="631.5" as="sourcePoint" />
            <mxPoint x="864" y="631.5" as="targetPoint" />
            <Array as="points">
              <mxPoint x="969" y="631.5" />
            </Array>
          </mxGeometry>
        </mxCell>
        <mxCell id="-_XJaFZbVaO3OMzWNfe_-71" value="" style="endArrow=open;html=1;rounded=0;exitX=0.99;exitY=0.271;exitDx=0;exitDy=0;exitPerimeter=0;entryX=-0.009;entryY=0.069;entryDx=0;entryDy=0;entryPerimeter=0;dashed=1;endFill=0;" edge="1" parent="1">
          <mxGeometry width="50" height="50" relative="1" as="geometry">
            <mxPoint x="854" y="641.5" as="sourcePoint" />
            <mxPoint x="574" y="642.5" as="targetPoint" />
            <Array as="points">
              <mxPoint x="679" y="642.5" />
            </Array>
          </mxGeometry>
        </mxCell>
        <mxCell id="-_XJaFZbVaO3OMzWNfe_-73" value="return history_list" style="text;html=1;align=center;verticalAlign=middle;whiteSpace=wrap;rounded=0;fontSize=14;" vertex="1" parent="1">
          <mxGeometry x="899" y="631.5" width="200.24" height="30" as="geometry" />
        </mxCell>
        <mxCell id="-_XJaFZbVaO3OMzWNfe_-74" value="" style="endArrow=classic;html=1;rounded=0;exitX=0.99;exitY=0.271;exitDx=0;exitDy=0;exitPerimeter=0;entryX=-0.009;entryY=0.069;entryDx=0;entryDy=0;entryPerimeter=0;endFill=1;" edge="1" parent="1">
          <mxGeometry width="50" height="50" relative="1" as="geometry">
            <mxPoint x="574" y="592.5" as="sourcePoint" />
            <mxPoint x="854" y="591.5" as="targetPoint" />
            <Array as="points">
              <mxPoint x="679" y="592.5" />
            </Array>
          </mxGeometry>
        </mxCell>
        <mxCell id="-_XJaFZbVaO3OMzWNfe_-75" value="return history_list" style="text;html=1;align=center;verticalAlign=middle;whiteSpace=wrap;rounded=0;fontSize=14;" vertex="1" parent="1">
          <mxGeometry x="618.76" y="641.5" width="200.24" height="30" as="geometry" />
        </mxCell>
        <mxCell id="-_XJaFZbVaO3OMzWNfe_-76" value="" style="endArrow=classic;html=1;rounded=0;exitX=0.955;exitY=0.208;exitDx=0;exitDy=0;exitPerimeter=0;entryX=0.027;entryY=0.096;entryDx=0;entryDy=0;entryPerimeter=0;endFill=1;" edge="1" parent="1">
          <mxGeometry width="50" height="50" relative="1" as="geometry">
            <mxPoint x="864" y="596.3400000000001" as="sourcePoint" />
            <mxPoint x="1139" y="596.3400000000001" as="targetPoint" />
            <Array as="points">
              <mxPoint x="969" y="596.3400000000001" />
            </Array>
          </mxGeometry>
        </mxCell>
        <mxCell id="-_XJaFZbVaO3OMzWNfe_-77" value="" style="rounded=0;whiteSpace=wrap;html=1;" vertex="1" parent="1">
          <mxGeometry x="854" y="581.5" width="10" height="70" as="geometry" />
        </mxCell>
        <mxCell id="-_XJaFZbVaO3OMzWNfe_-78" value="" style="rounded=0;whiteSpace=wrap;html=1;" vertex="1" parent="1">
          <mxGeometry x="1139" y="591.5" width="10" height="50" as="geometry" />
        </mxCell>
        <mxCell id="-_XJaFZbVaO3OMzWNfe_-80" value="" style="endArrow=classic;html=1;rounded=0;endFill=1;exitX=0.955;exitY=0.688;exitDx=0;exitDy=0;exitPerimeter=0;" edge="1" parent="1" target="-_XJaFZbVaO3OMzWNfe_-81">
          <mxGeometry width="50" height="50" relative="1" as="geometry">
            <mxPoint x="575.0000000000002" y="693.2199999999998" as="sourcePoint" />
            <mxPoint x="580.45" y="726.5" as="targetPoint" />
            <Array as="points">
              <mxPoint x="610.45" y="692.5" />
              <mxPoint x="610.45" y="726.5" />
            </Array>
          </mxGeometry>
        </mxCell>
        <mxCell id="-_XJaFZbVaO3OMzWNfe_-81" value="" style="rounded=0;whiteSpace=wrap;html=1;fillColor=#FFFFFF;" vertex="1" parent="1">
          <mxGeometry x="570" y="716.5" width="10" height="20" as="geometry" />
        </mxCell>
        <mxCell id="-_XJaFZbVaO3OMzWNfe_-82" value="Show_history()" style="text;html=1;align=center;verticalAlign=middle;whiteSpace=wrap;rounded=0;fontSize=14;" vertex="1" parent="1">
          <mxGeometry x="618" y="696.5" width="90" height="30" as="geometry" />
        </mxCell>
        <mxCell id="-_XJaFZbVaO3OMzWNfe_-83" value="Show printers operation history" style="text;html=1;align=center;verticalAlign=middle;whiteSpace=wrap;rounded=0;fontSize=14;" vertex="1" parent="1">
          <mxGeometry x="279.98" y="726.5" width="230.02" height="30" as="geometry" />
        </mxCell>
        <mxCell id="-_XJaFZbVaO3OMzWNfe_-84" value="" style="endArrow=open;dashed=1;html=1;strokeWidth=1;rounded=0;endFill=0;entryX=0.86;entryY=0.039;entryDx=0;entryDy=0;entryPerimeter=0;exitX=-0.025;exitY=0.039;exitDx=0;exitDy=0;exitPerimeter=0;" edge="1" parent="1">
          <mxGeometry width="50" height="50" relative="1" as="geometry">
            <mxPoint x="566.15" y="756.5" as="sourcePoint" />
            <mxPoint x="224.9999999999999" y="756.5" as="targetPoint" />
          </mxGeometry>
        </mxCell>
      </root>
    </mxGraphModel>
  </diagram>
</mxfile>
